<?xml version="1.0" encoding="iso-8859-1"?>
<!-- Generator: Adobe Illustrator 19.0.0, SVG Export Plug-In . SVG Version: 6.00 Build 0)  -->
<svg version="1.1" id="Layer_1" xmlns="http://www.w3.org/2000/svg" xmlns:xlink="http://www.w3.org/1999/xlink" x="0px" y="0px"
	 viewBox="0 0 512 512" style="enable-background:new 0 0 512 512;" xml:space="preserve">
<rect x="10.199" y="114.007" style="fill:#D35B38;" width="314.105" height="169.96"/>
<g>
	<rect x="10.199" y="283.967" style="fill:#FFE6B8;" width="314.105" height="73.149"/>
	<polygon style="fill:#FFE6B8;" points="468.453,238.789 383.472,238.789 383.472,137.671 324.308,137.671 324.308,357.117 
		501.801,357.117 501.801,258.152 	"/>
</g>
<path style="fill:#BCC987;" d="M468.453,238.789l-17.88-76.396c-3.389-14.481-16.303-24.722-31.176-24.722h-35.926v101.117h84.982
	V238.789z"/>
<rect x="462.004" y="277.511" style="fill:#FFAD61;" width="39.797" height="31.195"/>
<g>
	<circle style="fill:#CCCCCC;" cx="399.605" cy="357.115" r="40.878"/>
	<circle style="fill:#CCCCCC;" cx="93.027" cy="357.115" r="40.878"/>
</g>
<g>
	<path style="fill:#4D3D36;" d="M349.556,367.317c4.74,23.293,25.38,40.877,50.051,40.877c24.671,0,45.312-17.584,50.052-40.877
		h52.142c5.632,0,10.199-4.566,10.199-10.199v-98.966c0-3.635-1.934-6.995-5.078-8.82l-29.541-17.153l-16.877-72.109
		c-4.493-19.193-21.397-32.597-41.107-32.597h-84.891v-13.467c0-5.633-4.567-10.199-10.199-10.199H10.199
		C4.567,103.806,0,108.372,0,114.005v243.111c0,5.633,4.567,10.199,10.199,10.199h32.779c4.74,23.293,25.38,40.877,50.051,40.877
		s45.312-17.584,50.052-40.877h206.476V367.317z M440.642,164.718l14.949,63.873h-61.92v-80.719h25.727
		C429.585,147.871,438.322,154.799,440.642,164.718z M20.398,124.205h293.711v13.467v136.098H20.398V124.205z M20.398,294.168
		h293.711v16.176h-91.994c-5.632,0-10.199,4.566-10.199,10.199s4.567,10.199,10.199,10.199h91.994v16.176H143.081
		c-4.74-23.293-25.381-40.877-50.052-40.877s-45.311,17.583-50.051,40.877h-22.58V294.168z M93.029,387.796
		c-16.915,0-30.677-13.763-30.677-30.678c0-16.915,13.762-30.678,30.677-30.678c16.916,0,30.678,13.762,30.678,30.678
		C123.707,374.034,109.945,387.796,93.029,387.796z M399.608,387.796c-16.228,0-29.546-12.669-30.602-28.635
		c0.135-0.66,0.205-1.343,0.205-2.043c0-0.7-0.071-1.383-0.205-2.043c1.056-15.966,14.374-28.635,30.602-28.635
		c16.916,0,30.678,13.762,30.678,30.678C430.286,374.034,416.524,387.796,399.608,387.796z M334.507,147.871h38.766v90.918
		c0,5.633,4.567,10.199,10.199,10.199h82.235l25.894,15.037v3.292h-29.602c-5.632,0-10.199,4.566-10.199,10.199v31.195
		c0,5.633,4.567,10.199,10.199,10.199h29.602v28.008h-41.942c-4.74-23.293-25.381-40.877-50.052-40.877
		c-24.671,0-45.311,17.583-50.051,40.877h-15.05V147.871z M491.602,298.512h-19.403v-10.797h19.403V298.512z"/>
	<path style="fill:#4D3D36;" d="M179.087,330.742h8.606c5.632,0,10.199-4.566,10.199-10.199s-4.567-10.199-10.199-10.199h-8.606
		c-5.632,0-10.199,4.566-10.199,10.199S173.454,330.742,179.087,330.742z"/>
</g>
<g>
</g>
<g>
</g>
<g>
</g>
<g>
</g>
<g>
</g>
<g>
</g>
<g>
</g>
<g>
</g>
<g>
</g>
<g>
</g>
<g>
</g>
<g>
</g>
<g>
</g>
<g>
</g>
<g>
</g>
</svg>
