<?xml version="1.0" encoding="utf-8"?>
<!-- Generator: Adobe Illustrator 23.0.2, SVG Export Plug-In . SVG Version: 6.00 Build 0)  -->
<svg version="1.1" id="Layer_1" xmlns="http://www.w3.org/2000/svg" xmlns:xlink="http://www.w3.org/1999/xlink" x="0px" y="0px"
	 viewBox="0 0 662.07 145.71" style="enable-background:new 0 0 662.07 145.71;" xml:space="preserve">
<style type="text/css">
	.st0{fill:#509E2F;}
	.st1{fill:#E77724;}
</style>
<g>
	<g>
		<path class="st0" d="M405.92,58.1c0,0-4.6-9.15,8.54-12.95c13.21-3.75,15.99-5.33,16.42-7.68
			C431.31,35.11,436.81,66.2,405.92,58.1"/>
		<path class="st0" d="M220.59,122.46c0,0,0.28,5.27,0.55,7.16c0.3,2.09,0.42,3.56,3.32,4.69c2.11,0.82,7.67,2.35,16.76,1.66
			c13.63-1.03,24.28-8.59,24.6-22.6c0.27-11.91-7.79-16.47-18.22-23.67c-7.48-5.16-8.35-7.35-8.68-10.21
			c-0.34-3.07,2.45-6.8,8.81-7.09c7.35-0.33,11.17,3.52,12.37,4.08c1.04,0.5,2.15,0.43,2.45-1.64c0.4-2.75,0.49-6.53,0.25-9.27
			c-0.2-2.36-0.87-4.29-4.75-5.34c-3.35-0.9-7.78-2.23-15.98-1.66c-15.14,1.06-24.11,11.33-23.7,23.72
			c0.37,10.91,7.2,16.24,15.38,21.15c8.41,5.04,13.94,7.14,14.05,12.71c0.08,3.83-3.01,6.63-9.44,7.01
			c-5.89,0.35-12.1-1.21-14.01-2.01C222.45,120.35,220.46,119.8,220.59,122.46"/>
		<path class="st0" d="M134.22,12.98l-0.18-0.09c-4.42-2.38-10.17-6.26-20.98-5.62C94.24,8.38,84.06,20.99,84.06,42.94
			c0,1.48,0.04,3.02,0.14,4.58c0,0,0.15,2.51,0.26,4.42c-2.71,0.06-8.67,0.2-8.67,0.2c-0.56,0.01-1.1,0.26-1.48,0.69
			c-0.31,0.36-0.49,0.83-0.49,1.32c0,0.08,0.01,0.16,0.02,0.24l1.51,12.54c0.06,0.57,0.38,1.07,0.83,1.39
			c0.47,0.33,1.05,0.45,1.6,0.33c0,0,6.35-1.38,8.92-1.95c0.93,3.56,18.25,70.31,18.25,70.31c0.14,0.54,0.5,0.99,0.98,1.26
			c0.48,0.27,1.05,0.32,1.59,0.16l7.91-3.54c0.84-0.26,1.42-1.04,1.42-1.91c0-0.05,0-0.12-0.01-0.17c-1-11.67-2.01-23.35-3.01-35.02
			c-0.7-8.14-1.4-16.28-2.1-24.42c-0.23-2.68-0.86-5.63-0.72-8.31c0.26-4.82,2.22-4.16,7.43-5.53c1.26-0.33,2.51-0.66,3.77-0.99
			c0.78-0.21,1.65-0.48,2.04-1.18c0.26-0.47,0.25-1.04,0.22-1.58c-0.14-2.62-1.95-8.04-1.07-9.82c-1.35,0.24-14.07,1.75-14.09,2.33
			c0.03-0.91,0.05-1.87,0.05-1.87c0.1-12.27,5.21-20.47,13.02-20.93c1.47-0.09,3.95,1.42,5.75,2.52l2.29,1.31
			c0.58,0.34,1.23,0.34,1.83,0.05c0.61-0.29,0.98-0.88,1.08-1.54l1.94-12.74C135.41,14.23,134.97,13.39,134.22,12.98"/>
		<path class="st0" d="M91.67,116.31c0,0,9.18-20.93-20.58-27.54C41.35,82.13,34.95,79,33.67,73.85
			C32.37,68.68,24.3,138.39,91.67,116.31"/>
		<path class="st0" d="M308.11,59.37c-8.23,0-16.12,3.1-21.24,9.65c0.26-14.08,0.51-27.91,0.77-41.99c0.01-0.43,0-0.89-0.25-1.23
			c-0.44-0.58-1.34-0.5-2.06-0.36c-5.52,1.1-11.03,2.19-16.55,3.29c-0.51,0.1-1.06,0.23-1.36,0.65c-0.25,0.35-0.25,0.82-0.24,1.26
			c0.88,31.67,1.82,67.76,2.81,103.71c0.01,0.44,0.04,0.91,0.31,1.25c0.39,0.49,1.11,0.53,1.74,0.53l11.01-0.22
			c0.47,0,2.15,0.21,2.52-0.07c0.51-0.38,0.57-1.1,0.58-1.73c0.3-14.87-1.37-32.88,2.05-47.36c0.71-3,1.67-6.02,3.59-8.46
			c1.92-2.43,4.96-4.18,8.07-3.86c2.67,0.28,5,2.05,6.49,4.25c1.49,2.2,2.25,4.8,2.81,7.39c2.5,14.27,0.81,32.37,1.02,47.16
			c0.01,0.59,0.04,1.22,0.4,1.68c0.53,0.68,1.54,0.75,2.41,0.7c3.16-0.15,6.53-0.09,11.68-0.22c0.49-0.01,1.01-0.03,1.41-0.31
			c0.58-0.41,0.69-1.58,0.76-2.27c1.42-15.8,1.52-33.84,1.52-49.71C328.35,72.92,324.62,59.37,308.11,59.37"/>
		<path class="st1" d="M422.76,134.18c-1.86-28.08-3.69-60.52-4.13-68.7c-0.05-1.01-0.26-1.55-1.8-1.64
			c-0.67-0.04-2.78-0.09-4.94-0.31c-2.78-0.29-5.72-0.76-6.57-0.83c-0.92-0.07-1.7,0.71-1.7,1.71c0,10.03-0.03,55.69-0.37,69.84
			c-0.03,1.24,0.25,1.78,2.15,1.85c1.9,0.08,4.92-0.25,8.14-0.28c3.22-0.04,6.53,0.29,7.55,0.32
			C422.13,136.17,422.83,135.23,422.76,134.18"/>
		<path class="st1" d="M397.72,131.62c-0.89-1.91-2.44-6.31-2.67-14.19c-0.32-10.93,0.24-42.23,2.59-90.05
			c0.08-1.52-1.38-2.66-2.85-2.23c-2.23,0.65-5.32,1.53-7.95,2.18c-3.07,0.76-6.72,1.43-8.88,1.79c-1.08,0.18-1.87,1.13-1.85,2.23
			c0.25,11.83,0.43,22.27,0.55,31.47c-2.87-1.97-6.84-3.44-12.35-3.44c-15.22,0-31.18,10.71-31.18,40.14
			c0,21.67,10.52,36.08,27.84,36.08c9.13,0,14.65-3.84,17.81-7.4c1.8,4.28,5.23,7.94,11.07,7.94c3.8,0,6.08-1.17,7.3-2.13
			C397.87,133.44,398.1,132.45,397.72,131.62 M367.28,122.06c-9.65,0-14.11-10.22-14.11-23.03c0-13.35,3.82-25.49,13.96-25.49
			c8.33,0,9.76,6.76,9.76,12.56l0.01-0.02c0.07,9.64,0.08,17.09,0.1,22.71C376.96,110.29,376.32,122.06,367.28,122.06"/>
		<path class="st1" d="M462.93,57.69c-4.77,0.13-13.2,2.22-18.7,13.38c-0.11-3.39-0.2-6.53-0.24-9.29
			c-0.01-1.05-1.05-1.79-2.06-1.47c-2.08,0.68-5.38,1.71-8.05,2.35c-2.37,0.57-4.97,0.99-6.86,1.24c-1.19,0.16-2.04,1.22-1.92,2.41
			c1.48,14.89,6.04,59.47,6.97,68.57c0.09,0.88,0.92,1.25,1.8,1.1c0,0,3.72,0.32,6.37,0.03c2.7-0.3,5.76-0.27,5.76-0.27
			c0.84-0.05,1.48-0.77,1.43-1.61c-0.25-4.09-1-16.94-1.71-30.47c-0.32-7.33,0.46-12.53,1.69-16.25c2.94-8.84,9.04-9.6,10.37-11.51
			c0.71-1.01,2.28-4.39,3.86-7.93c1.7-3.8,3.61-6.83,3.56-8.53C465.15,58.36,464.07,57.66,462.93,57.69"/>
		<path class="st1" d="M617.16,122.25c-0.02-0.19-0.07-0.38-0.18-0.54c-0.38-0.57-1.21-0.56-1.89-0.44
			c-1.9,0.32-3.75,0.93-5.66,1.13c-1.92,0.19-4-0.1-5.45-1.36c-1.95-1.7-2.2-4.59-2.28-7.17c-0.35-11.47-0.06-23.42,0.24-34.89
			c0.03-1.06,0.14-2.28,1.03-2.87c0.5-0.34,1.14-0.37,1.75-0.4c2.4-0.11,4.8-0.22,7.2-0.33c1.06-0.05,2.3-0.19,2.86-1.09
			c0.35-0.57,0.32-0.82,0.27-1.48c-0.23-3.47-0.53-6.93-0.89-10.39c-0.04-0.43-0.11-0.89-0.43-1.18c-0.33-0.3-0.82-0.31-1.26-0.31
			c-3.49,0.01-6.97,0.03-10.46,0.04c-0.03-5.51-0.06-11.02-0.09-16.52c-0.01-1.29-0.18-2.87-1.37-3.4c-0.65-0.29-1.4-0.16-2.09-0.02
			c-2.87,0.56-5.73,1.13-8.6,1.69c-0.71,0.14-1.48,0.32-1.93,0.88c-0.37,0.47-0.43,1.1-0.47,1.7c-0.4,5.45-0.81,10.9-1.21,16.34
			c-0.01,0.16-8.47,0.33-9.23,1.6c-0.61,1.01,0.01,3.38,0.11,4.5c0.15,1.78,0.36,3.56,0.61,5.34c0.07,0.52,0.18,1.08,0.58,1.42
			c0.36,0.3,0.88,0.34,1.35,0.36c1.59,0.07,3.18,0.14,4.76,0.21c-0.12,11.73-0.24,23.47-0.36,35.2c-0.04,3.85-0.08,7.73,0.69,11.51
			c0.77,3.77,2.4,7.48,5.25,10.08c2.88,2.63,6.8,3.95,10.7,4.23c3.9,0.28,7.81-0.4,11.6-1.34c1.5-0.37,3.14-0.91,3.88-2.26
			c0.4-0.73,0.46-1.6,0.52-2.43c0.15-2.39,0.3-4.77,0.46-7.16C617.18,122.68,617.19,122.46,617.16,122.25"/>
		<path class="st1" d="M517.88,86.96c0-15.13-7.33-28.36-25.61-28.36c-14.08,0-33.6,10-33.6,36.88c0,9.46,1.78,17.46,5.24,23.83
			c6.16,11.34,17.66,17.51,33.95,17.51c10.7,0,20.21-2.41,20.57-5.99c0.21-2.07,0.45-5.98,0.59-8.2c0.07-1.07-0.98-1.86-1.98-1.48
			c-2.55,0.95-10.63,2.28-17.61,2.28c-8.03,0-17.36-3.93-20.69-16.75c9.88-2.93,25.49-7.91,32.3-10.46
			C518.13,93.58,517.88,91.51,517.88,86.96 M494.08,89.14c-1.6,0.65-11,4.37-16.59,6.58c0.02-15.99,5.9-22.4,12.48-22.4
			c5.93,0,9.22,5.21,9.22,10.34C499.19,87.08,496.39,88.2,494.08,89.14"/>
		<path class="st1" d="M558.3,136.82c10.28,0,17.77-2.41,18.11-5.99c0.2-2.07,0.29-5.98,0.42-8.2c0.07-1.07-0.94-1.86-1.9-1.48
			c-2.45,0.95-8.43,2.28-15.13,2.28c-6.78,0-14.53-3.05-18.47-12.52c-0.13-0.23-0.26-0.48-0.31-0.6c-0.41-0.95-0.75-2.16-1.03-3.47
			c-0.01-0.06-0.03-0.1-0.05-0.16c0,0,0.01,0,0.01,0c-0.69-3.27-1.04-7.18-1.21-9.66c-0.08-1.17,0.02-3.15,0.02-3.15l0.02-0.01
			c0.45-14.6,5.88-20.54,11.93-20.54c5,0,6.83,3.18,8,8.47c1.17,5.29,18.06,0.84,17.51-1.97c-2.22-11.48-8.59-21.21-23.29-21.21
			h-0.02c-13.51,0.01-32.23,10.01-32.24,36.87v0.03C520.69,121.78,533.89,136.82,558.3,136.82"/>
		<path class="st0" d="M159.5,57.69c-4.77,0.13-13.2,2.22-18.7,13.38c-0.11-3.39-0.2-6.53-0.24-9.29c-0.01-1.05-1.05-1.79-2.06-1.47
			c-2.08,0.68-5.38,1.71-8.05,2.35c-2.37,0.57-4.97,0.99-6.86,1.24c-1.19,0.16-2.04,1.22-1.92,2.41
			c1.48,14.89,6.04,59.47,6.97,68.57c0.09,0.88,0.92,1.25,1.8,1.1c0,0,3.72,0.32,6.37,0.03c2.7-0.3,5.76-0.27,5.76-0.27
			c0.84-0.05,1.48-0.77,1.43-1.61c-0.25-4.09-1-16.94-1.71-30.47c-0.32-7.33,0.46-12.53,1.69-16.25c2.94-8.84,9.04-9.6,10.37-11.51
			c0.71-1.01,2.28-4.39,3.86-7.93c1.7-3.8,3.61-6.83,3.56-8.53C161.72,58.36,160.64,57.66,159.5,57.69"/>
		<path class="st0" d="M214.45,86.96c0-15.13-7.33-28.36-25.61-28.36c-14.08,0-33.6,10-33.6,36.88c0,9.46,1.78,17.46,5.24,23.83
			c6.16,11.34,17.66,17.51,33.95,17.51c10.7,0,20.21-2.41,20.57-5.99c0.21-2.07,0.45-5.98,0.59-8.2c0.07-1.07-0.98-1.86-1.98-1.48
			c-2.55,0.95-10.63,2.28-17.61,2.28c-8.03,0-17.36-3.93-20.69-16.75c9.88-2.93,25.49-7.91,32.3-10.46
			C214.7,93.58,214.45,91.51,214.45,86.96 M190.65,89.14c-1.6,0.65-11,4.37-16.59,6.58c0.02-15.99,5.9-22.4,12.48-22.4
			c5.93,0,9.22,5.21,9.22,10.34C195.76,87.08,192.96,88.2,190.65,89.14"/>
	</g>
	<g>
		<path class="st1" d="M624.93,126.94c2.39,0,4.43,1.85,4.43,4.36c0,2.53-2.05,4.38-4.43,4.38c-2.41,0-4.46-1.85-4.46-4.38
			C620.48,128.78,622.52,126.94,624.93,126.94z M624.93,127.64c-2.03,0-3.61,1.57-3.61,3.65c0,2.13,1.57,3.67,3.61,3.67
			c2.01,0,3.58-1.54,3.58-3.67C628.52,129.21,626.94,127.64,624.93,127.64z M624,133.82h-0.78v-5.04h1.94c1.21,0,1.8,0.45,1.8,1.44
			c0,0.91-0.57,1.29-1.32,1.39l1.44,2.21h-0.85l-1.35-2.19H624V133.82z M624,131h0.92c0.95,0,1.25-0.27,1.25-0.82
			c0-0.48-0.24-0.75-1.12-0.75H624V131z"/>
	</g>
</g>
</svg>
