<svg height="512pt" viewBox="-50 0 512 512.00052" width="512pt" xmlns="http://www.w3.org/2000/svg"><path d="m9.984375 466.949219 65.214844-32.289063 4.679687 72.699219 126.105469-218.726563-69.894531-40.414062zm0 0" fill="#ff5964"/><path d="m401.984375 466.945312-65.214844-32.289062-4.679687 72.699219-126.109375-218.726563 69.898437-40.410156zm0 0" fill="#ff5964"/><path d="m390.535156 192.15625c0 10.46875-16.789062 19.34375-18.53125 29.3125-1.789062 10.25 10.933594 24.304688 7.460938 33.867188-3.535156 9.730468-22.347656 12.335937-27.457032 21.183593-5.160156 8.9375 1.984376 26.515625-4.605468 34.375-6.605469 7.882813-25.171875 3.917969-33.039063 10.542969-7.847656 6.605469-7.109375 25.578125-16.03125 30.753906-8.84375 5.125-24.925781-4.929687-34.652343-1.382812-9.558594 3.488281-15.378907 21.566406-25.625 23.363281-9.964844 1.75-21.601563-13.21875-32.070313-13.21875-10.464844 0-22.101563 14.96875-32.066406 13.21875-10.25-1.796875-16.070313-19.875-25.628907-23.363281-9.726562-3.546875-25.808593 6.507812-34.648437 1.382812-8.925781-5.175781-8.1875-24.148437-16.035156-30.753906-7.867188-6.621094-26.433594-2.660156-33.039063-10.542969-6.585937-7.859375.554688-25.4375-4.601562-34.371093-5.109375-8.851563-23.921875-11.453126-27.460938-21.1875-3.472656-9.5625 9.253906-23.617188 7.464844-33.867188-1.742188-9.964844-18.53125-18.84375-18.53125-29.308594 0-10.46875 16.789062-19.34375 18.53125-29.3125 1.789062-10.25-10.9375-24.304687-7.460938-33.867187 3.535157-9.730469 22.347657-12.335938 27.457032-21.183594 5.15625-8.9375-1.984375-26.515625 4.601562-34.375 6.609375-7.882813 25.171875-3.917969 33.039063-10.542969 7.847656-6.605468 7.113281-25.578125 16.035156-30.753906 8.84375-5.125 24.925781 4.929688 34.652344 1.382812 9.554687-3.488281 15.375-21.566406 25.625-23.363281 9.964843-1.75 21.601562 13.21875 32.066406 13.21875 10.46875 0 22.105469-14.96875 32.070313-13.21875 10.25 1.796875 16.070312 19.875 25.625 23.363281 9.730468 3.546876 25.8125-6.507812 34.652343-1.382812 8.921875 5.175781 8.1875 24.148438 16.035157 30.753906 7.867187 6.621094 26.429687 2.660156 33.039062 10.542969 6.585938 7.859375-.558594 25.4375 4.601562 34.371094 5.109376 8.851562 23.921876 11.453125 27.457032 21.1875 3.476562 9.5625-9.25 23.617187-7.460938 33.867187 1.742188 9.964844 18.53125 18.84375 18.53125 29.308594zm0 0" fill="#ffd469"/><path d="m316.960938 192.15625c0-61.375-49.683594-111.128906-110.976563-111.128906-61.289063 0-110.972656 49.753906-110.972656 111.128906s49.683593 111.128906 110.972656 111.128906c61.292969 0 110.976563-49.753906 110.976563-111.128906zm0 0" fill="#fff"/><path d="m238.996094 245.316406-33.957032-18.738281-34.683593 17.351563 7.320312-38.085938-27.222656-27.625 38.484375-4.800781 17.859375-34.421875 16.460937 35.117187 38.257813 6.351563-28.304687 26.503906zm0 0" fill="#ffd469"/><path d="m410.675781 457.273438-78.058593-134.019532c9.035156-1.136718 18.324218-3.082031 23.71875-11 6.480468-9.515625 1.746093-18.800781 3.675781-28.890625 3-15.652343 28.804687-13.339843 29.988281-33.664062.527344-9.054688-5.519531-15.695313-7.128906-24.054688-1.550782-8.042969 4.097656-11.03125 9.125-17.03125 14.160156-16.898437 6.378906-28.070312-5.535156-42.855469-5-6.203124-4.605469-8.066406-1.839844-15.402343 3.648437-9.695313 8.484375-19.597657 2.59375-29.558594-4.257813-7.191406-12.234375-10.269531-19.164063-14.21875-8.8125-5.019531-7.933593-8.214844-7.757812-17.820313.425781-23.496093-11.082031-28.261718-31.773438-32.117187-16.59375-3.09375-10.703125-25.136719-25.152343-33.410156-8.457032-4.839844-17.859376-2.078125-26.742188-.429688-9.546875 1.769531-10.875.449219-16.761719-6.832031-14.222656-17.585938-25.820312-18.378906-45.164062-7.023438-6.851563 4.023438-9.101563 4.761719-16.089844.828126-8.265625-4.648438-16.214844-11.230469-26.410156-9.488282-16.480469 2.820313-18.613281 25.5-35.324219 22.84375-21.324219-3.390625-33.464844-2.148437-41.003906 19.824219-2.707032 7.886719-2.507813 11.289063-10.796875 13.433594-8.105469 2.097656-16.625 1.101562-23.851563 6.203125-16.292968 11.507812-.917968 34.167968-15.457031 43.046875-7.425781 4.539062-16.289063 7.238281-20.980469 15.160156-5.519531 9.324219-1.5625 18.964844 2.003906 28.148437 3.300782 8.507813 3.902344 10.890626-2.230468 17.867188-6.515625 7.414062-13.929688 14.664062-12.929688 25.347656.902344 9.609375 8.230469 15.449219 13.910156 22.503906 5.957032 7.394532 3.714844 10.304688.445313 18.730469-4.179687 10.765625-6.601563 21.320313 2.320313 30.53125 5.886718 6.082031 18.761718 7.839844 23.003906 14.742188 4.148437 6.746093-1.015625 19.9375 1.519531 27.746093 3.882813 11.976563 15.074219 15.394532 26.5625 16.839844l-78.066406 134.019532c-4.820313 8.285156 4.433593 18.074218 13.101562 13.820312l51.761719-25.371094 3.722656 57.132813c.613282 9.539062 13.796875 12.65625 18.640625 4.308593l75.796875-130.109374c7.828125 4.976562 16.191406 3.585937 24.089844-.234376 5.0625-2.445312 11.691406-9.625 17.5625-9.625 5.4375 0 12.652344 7.183594 17.21875 9.449219 7.957031 3.945313 16.4375 5.492188 24.433594.410157h.011718l75.785157 130.105468c4.84375 8.347656 18.027343 5.234375 18.640625-4.304687l3.71875-57.136719 51.765625 25.371094c8.667969 4.238281 17.925781-5.523438 13.101562-13.816406zm-322.933593 11.652343-2.5625-39.300781c-.433594-6.84375-8.113282-11.351562-14.410157-8.234375l-35.625 17.449219 60.136719-103.234375c.019531.0625.027344.109375.050781.160156 3.804688 12.304687 9.300781 23.207031 23.78125 24.144531 11.417969.738282 22.75-8.464844 31 1.917969zm163.609374-125.171875c-3.714843 3.546875-9.683593 15.449219-14.941406 16.867188-10.078125.347656-18.859375-13.226563-30.410156-13.222656-6.25 0-11.882812 2.902343-17.132812 5.933593-3.25 1.875-9.058594 7.507813-13.191407 7.308594-8.449219-2.148437-13.429687-17.925781-22.308593-21.929687-6.257813-2.820313-12.800782-2.175782-19.421876-1.039063-4.039062.695313-11.300781 4.054687-15.261718 2.398437-3.371094-2.410156-4.21875-10.550781-5.480469-14.066406-2.039063-5.667968-4.414063-11.40625-9.152344-15.398437-8.59375-7.25-24.722656-2.480469-31.789062-9.1875-2.007813-3-.441407-9.539063-.386719-13.011719.117188-7.507812.144531-14.738281-4.34375-21.175781-5.523438-7.929688-21.882812-10.03125-25.601562-17.808594-.792969-3.484375 2.847656-9.050781 4.121093-12.253906 2.769531-6.972657 5.257813-13.910157 3.277344-21.449219-2.378906-9.054688-17.40625-17.191406-17.890625-25.503906.484375-8.378906 15.503906-16.414063 17.890625-25.503906 1.761719-6.703126-.078125-13.101563-2.433594-19.445313-1.402343-3.78125-5.894531-10.074219-4.996093-14.195313 3.785156-7.894531 20.0625-9.882812 25.632812-17.878906 3.960938-5.683594 4.453125-12.269531 4.433594-19.003906-.007813-4.011719-2.078125-11.613281.253906-15.125 6.992188-6.753906 23.230469-2.074219 31.832031-9.246094 8.554688-7.132812 6.738281-23.800781 14.574219-29.429687 3.335938-1.421875 9.53125 1.210937 12.972656 1.859375 7.457032 1.40625 14.660156 2.683594 21.847656-.582032 8.722657-3.964843 13.863282-19.730468 22.140626-21.867187 10.074218-.347656 18.871093 13.222656 30.414062 13.226563 11.464844 0 20.386719-13.660157 30.332031-13.238282 8.351563 2.09375 13.492188 17.910156 22.222657 21.878906 6.34375 2.886719 13 2.222657 19.707031 1.046876 3.992187-.703126 11.140625-3.996094 15.054687-2.363282 7.910156 5.621094 6.054688 22.316406 14.628906 29.46875 8.636719 7.199219 24.6875 2.5 31.792969 9.183594 2.011719 3 .449219 9.550781.398438 13.019531-.117188 7.511719-.160157 14.730469 4.332031 21.171875 5.535156 7.945313 21.859375 10.011719 25.613281 17.808594.773438 3.5-2.855469 9.035156-4.132812 12.25-2.773438 6.976562-5.261719 13.921875-3.277344 21.460938 2.382813 9.050781 17.414063 17.179687 17.890625 25.503906-.484375 8.378906-15.5 16.417968-17.890625 25.503906-1.761719 6.699219.082031 13.09375 2.433594 19.433594 1.40625 3.78125 5.894531 10.074218 4.996093 14.195312-3.691406 7.855469-20.101562 9.941406-25.632812 17.878906-3.960938 5.6875-4.445312 12.269532-4.425781 19.007813.011719 4.007813 2.078125 11.625-.253907 15.132813-7.089843 6.738281-23.191406 2.066406-31.839843 9.246093-8.609375 7.144531-6.691407 23.75-14.570313 29.429688-5.011718 2.105469-14.394531-2.558594-19.5625-3.089844-8.660156-.886719-16.113281.714844-22.464844 6.800781-2.820312 2.691406 2.5625-2.453125 0 0zm89.878907 77.636719c-6.207031-3.0625-13.972657 1.339844-14.414063 8.226563l-2.558594 39.296874-62.375-107.074218c8.277344-10.472656 19.53125-1.183594 31.007813-1.929688 14.453125-.9375 19.96875-11.824218 23.777344-24.144531.019531-.050781.03125-.097656.050781-.15625l60.132812 103.234375zm0 0"/><path d="m206 310.113281c-66.707031 0-120.980469-53.789062-120.980469-119.902343 0-66.113282 54.273438-119.902344 120.980469-119.902344 66.710938 0 120.984375 53.789062 120.984375 119.902344 0 66.113281-54.273437 119.902343-120.984375 119.902343zm0-220.007812c-55.679688 0-100.980469 44.90625-100.980469 100.105469 0 55.199218 45.300781 100.105468 100.980469 100.105468 55.683594 0 100.980469-44.90625 100.980469-100.105468 0-55.199219-45.296875-100.105469-100.980469-100.105469zm0 0"/><path d="m239.011719 252.730469c-1.65625 0-3.320313-.40625-4.828125-1.230469l-29.359375-16.035156-29.980469 14.847656c-3.40625 1.683594-7.480469 1.308594-10.515625-.964844-3.035156-2.277344-4.5-6.058594-3.78125-9.757812l6.332031-32.585938-23.535156-23.644531c-2.671875-2.683594-3.574219-6.636719-2.324219-10.195313 1.25-3.558593 4.433594-6.105468 8.210938-6.574218l33.265625-4.105469 15.4375-29.453125c1.753906-3.34375 5.285156-5.417969 9.078125-5.339844 3.808593.078125 7.242187 2.285156 8.855469 5.695313l14.234374 30.050781 33.078126 5.4375c3.753906.617188 6.828124 3.292969 7.929687 6.898438 1.105469 3.605468.042969 7.519531-2.734375 10.09375l-24.472656 22.675781 5.003906 32.816406c.566406 3.726563-1.050781 7.445313-4.175781 9.601563-1.710938 1.175781-3.710938 1.769531-5.71875 1.769531zm-33.957031-38.34375c1.664062 0 3.328124.414062 4.828124 1.230469l16.21875 8.859374-2.765624-18.125c-.492188-3.222656.652343-6.476562 3.054687-8.703124l13.519531-12.53125-18.273437-3c-3.246094-.535157-6.019531-2.613282-7.417969-5.5625l-7.863281-16.605469-8.527344 16.273437c-1.515625 2.890625-4.371094 4.859375-7.640625 5.265625l-18.375 2.265625 13 13.0625c2.3125 2.320313 3.320312 5.617188 2.699219 8.816406l-3.5 18.003907 16.566406-8.203125c1.410156-.699219 2.945313-1.046875 4.476563-1.046875zm0 0"/></svg>