<svg height="511pt" viewBox="0 -20 511.99934 511" width="511pt" xmlns="http://www.w3.org/2000/svg"><g fill-rule="evenodd"><path d="m115.339844 100.066406h386.660156l-49.519531 229.375h-287.621094zm0 0" fill="#ffdda0"/><path d="m184.195312 460.992188c23.125 0 41.984376-18.863282 41.984376-41.988282s-18.859376-41.984375-41.984376-41.984375-41.988281 18.859375-41.988281 41.984375 18.863281 41.988282 41.988281 41.988282zm0 0" fill="#fec96b"/><path d="m433.144531 460.992188c23.125 0 41.988281-18.863282 41.988281-41.988282s-18.863281-41.984375-41.988281-41.984375-41.984375 18.859375-41.984375 41.984375 18.859375 41.988282 41.984375 41.988282zm0 0" fill="#fec96b"/><path d="m356.671875 162.09375 62.027344 62.027344zm-62.027344-149.75c48.445313 0 87.722657 39.273438 87.722657 87.722656 0 24.222656-9.820313 46.152344-25.695313 62.027344-15.871094 15.875-37.804687 25.691406-62.027344 25.691406-48.445312 0-87.71875-39.273437-87.71875-87.71875-.003906-48.449218 39.269531-87.722656 87.71875-87.722656zm0 0" fill="#67e4dc"/><path d="m348.671875 319.441406c-5.523437 0-10 4.476563-10 10 0 5.519532 4.476563 10 10 10h103.808594c4.710937 0 8.78125-3.289062 9.773437-7.890625l49.519532-229.375c.636718-2.957031-.09375-6.039062-1.992188-8.390625-1.898438-2.351562-4.757812-3.71875-7.78125-3.71875h-110.144531c-3.277344-31.996094-22.132813-60.539062-50.851563-76.042968-4.859375-2.625-10.925781-.808594-13.550781 4.050781s-.8125 10.925781 4.050781 13.550781c25.203125 13.605469 40.859375 39.832031 40.859375 68.441406 0 20.757813-8.082031 40.277344-22.765625 54.957032-14.675781 14.679687-34.195312 22.761718-54.953125 22.761718-42.855469 0-77.722656-34.863281-77.722656-77.71875 0-30.425781 17.90625-58.21875 45.621094-70.804687 5.027343-2.285157 7.253906-8.210938 4.96875-13.238281-2.285157-5.03125-8.210938-7.253907-13.242188-4.972657-31.773437 14.433594-53.285156 44.769531-56.824219 79.015625h-74.035156l-17.632812-81.675781c-.992188-4.605469-5.0625-7.890625-9.773438-7.890625h-86.003906c-5.523438 0-10 4.476562-10 10s4.476562 10 10 10h77.933594l17.632812 81.675781 49.519532 229.375c0 .003907.003906.007813.003906.011719l8.566406 39.691406c-18.476562 7.980469-31.445312 26.375-31.445312 47.75 0 28.664063 23.320312 51.984375 51.984374 51.984375 25.246094 0 46.335938-18.089843 51.011719-41.984375h146.925781c4.679688 23.894532 25.769532 41.984375 51.011719 41.984375 28.667969 0 51.988281-23.320312 51.988281-51.984375 0-28.664062-23.320312-51.984375-51.988281-51.984375-25.242187 0-46.332031 18.089844-51.011719 41.984375h-146.925781c-4.675781-23.894531-25.769531-41.984375-51.011719-41.984375-.332031 0-.660156.015625-.988281.023438l-5.960937-27.605469h91.425781c5.519531 0 10-4.476562 10-10s-4.480469-10-10-10h-95.742187l-45.199219-209.371094h69.699219c5.023437 49.203125 46.707031 87.71875 97.214843 87.71875 22.738281 0 44.292969-7.714844 61.671875-21.902344l55.3125 55.308594c1.953125 1.953125 4.511719 2.929688 7.070313 2.929688 2.558593 0 5.117187-.976563 7.070312-2.929688 3.90625-3.902344 3.90625-10.234375 0-14.140625l-55.3125-55.3125c12.09375-14.804687 19.460938-32.652343 21.382813-51.671875h97.769531l-45.199219 209.375zm84.472656 67.578125c17.636719 0 31.988281 14.347657 31.988281 31.984375 0 17.636719-14.351562 31.988282-31.988281 31.988282s-31.984375-14.351563-31.984375-31.988282c0-17.636718 14.347656-31.984375 31.984375-31.984375zm-216.960937 31.972657c0 .003906-.003906.007812-.003906.011718s.003906.007813.003906.015625c-.007813 17.628907-14.355469 31.972657-31.988282 31.972657-17.636718 0-31.984374-14.347657-31.984374-31.988282 0-17.636718 14.347656-31.984375 31.984374-31.984375 17.632813 0 31.980469 14.339844 31.988282 31.972657zm0 0"/><path d="m294.644531 22.34375c5.507813 0 10-4.492188 10-10s-4.492187-10-10-10c-5.507812 0-10 4.492188-10 10s4.492188 10 10 10zm0 0"/><path d="m298.671875 329.441406c0 5.507813 4.488281 10 10 10 5.507813 0 10-4.492187 10-10 0-5.507812-4.492187-10-10-10-5.511719 0-10 4.492188-10 10zm0 0"/></g></svg>